<svg width="120" height="120" viewBox="0 0 120 120" fill="none" xmlns="http://www.w3.org/2000/svg">
<g filter="url(#filter0_di_56_304)">
<path fill-rule="evenodd" clip-rule="evenodd" d="M60.026 15.9124C61.4736 15.9124 62.6471 17.0859 62.6471 18.5335V22.2031C62.6471 23.6507 61.4736 24.8243 60.026 24.8243C58.5784 24.8243 57.4048 23.6507 57.4048 22.2031V18.5335C57.4048 17.0859 58.5784 15.9124 60.026 15.9124ZM60.026 95.1761C61.4736 95.1761 62.6471 96.3496 62.6471 97.7972V101.467C62.6471 102.914 61.4736 104.088 60.026 104.088C58.5784 104.088 57.4048 102.914 57.4048 101.467V97.7972C57.4048 96.3496 58.5784 95.1761 60.026 95.1761ZM18.5069 57.379C17.0593 57.379 15.8857 58.5525 15.8857 60.0002C15.8857 61.4478 17.0593 62.6213 18.5069 62.6213H22.2289C23.6766 62.6213 24.8501 61.4478 24.8501 60.0002C24.8501 58.5525 23.6766 57.379 22.2289 57.379H18.5069ZM95.2543 60.0002C95.2543 58.5525 96.4278 57.379 97.8755 57.379H101.493C102.94 57.379 104.114 58.5525 104.114 60.0002C104.114 61.4478 102.94 62.6213 101.493 62.6213H97.8755C96.4278 62.6213 95.2543 61.4478 95.2543 60.0002ZM35.1436 88.5894C36.1673 87.5658 36.1673 85.9061 35.1436 84.8825C34.12 83.8589 32.4604 83.8589 31.4368 84.8825L28.868 87.4512C27.8444 88.4749 27.8444 90.1345 28.868 91.1581C29.8917 92.1817 31.5513 92.1817 32.5749 91.1581L35.1436 88.5894ZM91.1839 28.8422C92.2076 29.8659 92.2076 31.5255 91.1839 32.5491L88.6152 35.1178C87.5916 36.1415 85.932 36.1415 84.9083 35.1178C83.8847 34.0942 83.8847 32.4346 84.9083 31.411L87.4771 28.8422C88.5007 27.8186 90.1603 27.8186 91.1839 28.8422ZM32.5749 28.8422C31.5513 27.8186 29.8917 27.8186 28.868 28.8422C27.8444 29.8659 27.8444 31.5255 28.868 32.5491L31.4368 35.1178C32.4604 36.1415 34.12 36.1415 35.1436 35.1178C36.1673 34.0942 36.1673 32.4346 35.1436 31.411L32.5749 28.8422ZM84.9083 84.8825C85.932 83.8589 87.5916 83.8589 88.6152 84.8825L91.1839 87.4512C92.2076 88.4749 92.2076 90.1345 91.1839 91.1581C90.1603 92.1817 88.5007 92.1817 87.4771 91.1581L84.9083 88.5894C83.8847 87.5658 83.8847 85.9061 84.9083 84.8825ZM59.9998 89.1387C76.0925 89.1387 89.1383 76.0929 89.1383 60.0002C89.1383 43.9075 76.0925 30.8617 59.9998 30.8617C43.907 30.8617 30.8613 43.9075 30.8613 60.0002C30.8613 76.0929 43.907 89.1387 59.9998 89.1387Z" fill="url(#paint0_linear_56_304)"/>
</g>
<defs>
<filter id="filter0_di_56_304" x="3.88574" y="3.91235" width="112.228" height="112.176" filterUnits="userSpaceOnUse" color-interpolation-filters="sRGB">
<feFlood flood-opacity="0" result="BackgroundImageFix"/>
<feColorMatrix in="SourceAlpha" type="matrix" values="0 0 0 0 0 0 0 0 0 0 0 0 0 0 0 0 0 0 127 0" result="hardAlpha"/>
<feOffset/>
<feGaussianBlur stdDeviation="6"/>
<feComposite in2="hardAlpha" operator="out"/>
<feColorMatrix type="matrix" values="0 0 0 0 1 0 0 0 0 0.9 0 0 0 0 0 0 0 0 0.4 0"/>
<feBlend mode="normal" in2="BackgroundImageFix" result="effect1_dropShadow_56_304"/>
<feBlend mode="normal" in="SourceGraphic" in2="effect1_dropShadow_56_304" result="shape"/>
<feColorMatrix in="SourceAlpha" type="matrix" values="0 0 0 0 0 0 0 0 0 0 0 0 0 0 0 0 0 0 127 0" result="hardAlpha"/>
<feOffset dy="0.6"/>
<feGaussianBlur stdDeviation="1.8"/>
<feComposite in2="hardAlpha" operator="arithmetic" k2="-1" k3="1"/>
<feColorMatrix type="matrix" values="0 0 0 0 1 0 0 0 0 1 0 0 0 0 1 0 0 0 1 0"/>
<feBlend mode="normal" in2="shape" result="effect2_innerShadow_56_304"/>
</filter>
<linearGradient id="paint0_linear_56_304" x1="59.9998" y1="15.9124" x2="59.9998" y2="104.088" gradientUnits="userSpaceOnUse">
<stop stop-color="#FCC308"/>
<stop offset="1" stop-color="#FF627C"/>
</linearGradient>
</defs>
</svg>
